<?xml version="1.0" encoding="UTF-8"?>
<svg width="64" height="64" viewBox="0 0 64 64" fill="none" xmlns="http://www.w3.org/2000/svg">
  <!-- Background Circle with Gradient -->
  <defs>
    <linearGradient id="bgGradient" x1="0%" y1="0%" x2="100%" y2="100%">
      <stop offset="0%" style="stop-color:#3498db;stop-opacity:1" />
      <stop offset="100%" style="stop-color:#2980b9;stop-opacity:1" />
    </linearGradient>
    <linearGradient id="serverGradient" x1="0%" y1="0%" x2="100%" y2="100%">
      <stop offset="0%" style="stop-color:#ecf0f1;stop-opacity:1" />
      <stop offset="100%" style="stop-color:#bdc3c7;stop-opacity:1" />
    </linearGradient>
    <filter id="shadow" x="-50%" y="-50%" width="200%" height="200%">
      <feDropShadow dx="2" dy="2" stdDeviation="3" flood-color="#2c3e50" flood-opacity="0.3"/>
    </filter>
  </defs>
  
  <!-- Main Background -->
  <circle cx="32" cy="32" r="30" fill="url(#bgGradient)" filter="url(#shadow)"/>
  
  <!-- Inner Circle -->
  <circle cx="32" cy="32" r="26" fill="none" stroke="#ecf0f1" stroke-width="2" opacity="0.3"/>
  
  <!-- Server Rack Icon -->
  <rect x="18" y="20" width="28" height="24" rx="2" fill="url(#serverGradient)" stroke="#2c3e50" stroke-width="1.5"/>
  
  <!-- Server Sections -->
  <rect x="20" y="22" width="24" height="6" rx="1" fill="#2c3e50" opacity="0.8"/>
  <rect x="20" y="30" width="24" height="6" rx="1" fill="#2c3e50" opacity="0.6"/>
  <rect x="20" y="38" width="24" height="4" rx="1" fill="#2c3e50" opacity="0.4"/>
  
  <!-- Status LEDs -->
  <circle cx="41" cy="25" r="1.5" fill="#27ae60"/>
  <circle cx="41" cy="33" r="1.5" fill="#f39c12"/>
  <circle cx="41" cy="40" r="1.5" fill="#e74c3c"/>
  
  <!-- Connection Lines -->
  <path d="M22 48 L32 54 L42 48" stroke="#3498db" stroke-width="2" fill="none" opacity="0.7"/>
  <circle cx="22" cy="48" r="2" fill="#3498db"/>
  <circle cx="32" cy="54" r="2" fill="#3498db"/>
  <circle cx="42" cy="48" r="2" fill="#3498db"/>
  
  <!-- Power Symbol -->
  <circle cx="32" cy="15" r="3" fill="none" stroke="#ecf0f1" stroke-width="1.5"/>
  <line x1="32" y1="12" x2="32" y2="15" stroke="#ecf0f1" stroke-width="1.5" stroke-linecap="round"/>
</svg>
